<svg width="96" height="96" xmlns="http://www.w3.org/2000/svg" xmlns:xlink="http://www.w3.org/1999/xlink" xml:space="preserve" overflow="hidden"><g><g><path d="M64.162 79.348C65.1434 80.983 66.439 82.4075 67.974 83.539 68.824 84.1059 69.9727 83.8764 70.5396 83.0263 70.5876 82.9543 70.6305 82.879 70.668 82.801 71.0433 81.9272 70.732 80.9101 69.932 80.396 69.0244 79.6901 68.2462 78.832 67.632 77.86 71.109 78.439 74.694 79.039 77.527 79.789 78.514 80.0511 79.5266 79.4636 79.7887 78.4766 79.8113 78.3917 79.8277 78.3053 79.838 78.218 79.9231 77.2773 79.3082 76.4155 78.391 76.19 75.376 75.398 71.691 74.785 68.131 74.19 64.0524 73.6041 60.0155 72.7577 56.045 71.656 54.983 71.102 52.445 69.666 52.298 68.53L51.79 66.23C51.6149 65.4453 51.5811 64.6356 51.69 63.839 51.773 63.239 51.858 62.634 51.858 62.634 52.558 59.5 56.732 57.411 61.171 55.234 65.61 53.057 70.832 50.446 72.486 45.919 73.5788 46.3051 74.7271 46.5108 75.886 46.528 81.6472 46.5099 86.3125 41.8432 86.329 36.082 86.261 31.7533 83.5763 27.8976 79.54 26.332 78.59 23.0955 76.525 20.2997 73.711 18.44L73.1 17.277C73.1354 11.3478 68.3576 6.51247 62.4283 6.47704 62.3879 6.4768 62.3474 6.47679 62.307 6.477 60.5774 6.46855 58.8726 6.88873 57.345 7.7 55.3196 4.74511 51.9623 2.98503 48.38 3 43.6818 3.02405 39.519 6.0333 38.023 10.487 34.5699 8.53043 30.3183 8.64239 26.973 10.778 24.0979 12.564 22.2162 15.5849 21.881 18.953 21.8427 19.4012 21.8316 19.8514 21.848 20.301 18.393 21.266 16.0027 24.4128 16 28 16 28.131 16.013 28.258 16.02 28.387 10.4368 31.4146 8.36513 38.3951 11.3928 43.9783 14.237 49.2233 20.6201 51.4219 26.091 49.041 31.9 51.548 40.127 56.7 43 62 43.7796 63.4736 44.0563 65.1616 43.788 66.807L43.678 67.52C43.678 67.52 43.689 69.729 39.354 71.249 35.865 72.029 31.328 72.701 28.307 73.149 23.558 73.849 19.449 74.457 17.39 75.254 16.5098 75.5804 16 76.5007 16.19 77.42 16.4198 78.415 17.4127 79.0353 18.4076 78.8055 18.5005 78.7841 18.5916 78.7555 18.68 78.72 20.223 78.102 24.201 77.495 28.18 76.905 27.435 78.2555 26.4069 79.429 25.166 80.345 24.3596 80.7561 23.962 81.6847 24.221 82.552 24.5243 83.5277 25.5611 84.0727 26.5368 83.7694 26.6328 83.7396 26.7261 83.702 26.816 83.657 29.03 82.549 31.634 78.913 32.629 76.231 35.074 75.848 37.197 75.481 39.017 75.103 39.3863 75.0289 39.7457 75.2683 39.8198 75.6376 39.8671 75.8735 39.7866 76.1168 39.608 76.278 38.714 77.078 37.792 77.778 36.824 78.515 33.7831 80.6576 31.1284 83.3012 28.973 86.333 28.4294 87.0784 28.4928 88.1051 29.124 88.778 29.8474 89.5011 31.02 89.5009 31.7431 88.7775 31.8191 88.7015 31.8883 88.619 31.95 88.531 32.9749 87.0558 34.1476 85.6891 35.45 84.452 35.7414 86.2364 35.4742 88.0673 34.685 89.694 33.9518 90.4055 33.9342 91.5768 34.6457 92.31 35.3572 93.0432 36.5285 93.0608 37.2617 92.3493 37.275 92.3364 37.2881 92.3233 37.301 92.31 38.913 90.698 39.918 85.926 38.748 82.417 38.6847 82.2355 38.5933 82.0651 38.477 81.912L39.069 81.459C39.823 80.885 40.584 80.304 41.348 79.665 41.562 80.793 41.89 81.8963 42.327 82.958 41.6455 85.5688 41.2558 88.2472 41.165 90.944 41.133 91.9652 41.9348 92.8189 42.956 92.851L43.015 92.851C44.0139 92.8504 44.8322 92.0574 44.864 91.059 44.864 91.033 44.919 89.444 45.153 87.592 46.9351 89.6389 48.9285 91.4919 51.1 93.12 51.8993 93.7582 53.0646 93.6277 53.7028 92.8284 53.7747 92.7383 53.8381 92.6418 53.892 92.54 54.2958 91.7157 54.0604 90.7209 53.33 90.165 50.33 87.76 47.767 85.485 46.23 82.565 47.1431 82.9356 47.9803 83.4709 48.7 84.144 49.4555 84.8318 50.6256 84.7769 51.3134 84.0213 51.9612 83.3098 51.9553 82.2206 51.3 81.516 51 81.216 48.317 78.65 45.186 78.65L45.113 78.65C45.048 78.65 44.986 78.665 44.923 78.672 44.8383 78.3066 44.7769 77.9362 44.739 77.563 44.723 77.2882 44.7929 77.0153 44.939 76.782L44.966 76.737C45.7776 75.4052 47.5153 74.9835 48.8471 75.7952 49.2191 76.0219 49.5336 76.3315 49.766 76.7 50.373 77.679 51.028 78.654 51.698 79.648 53.885 82.896 56.147 86.254 57.198 90.448 57.4042 91.2746 58.148 91.8538 59 91.851 59.3021 91.8504 59.5996 91.7766 59.867 91.636 60.6302 91.2034 61.0031 90.3085 60.773 89.462 60.4159 88.0859 59.945 86.742 59.365 85.444 61.4442 85.935 63.0883 87.5238 63.65 89.585 63.9708 90.5533 65.0158 91.0783 65.9841 90.7575 66.0848 90.7241 66.1825 90.6821 66.276 90.632 67.0951 90.1484 67.4459 89.1444 67.106 88.256 65.406 83.35 61.827 82.297 59.206 81.526 58.3638 81.312 57.5464 81.0103 56.767 80.626 56.103 79.568 55.428 78.555 54.775 77.586 54.5183 77.204 54.2647 76.8253 54.014 76.45 53.7599 76.0665 53.8647 75.5496 54.2482 75.2955 54.4603 75.1549 54.7251 75.119 54.967 75.198 57.3914 75.9391 59.8603 76.5256 62.359 76.954ZM58.216 42.525C60.4799 43.9595 63.1079 44.7144 65.788 44.7 66.6075 44.7039 67.4249 44.6164 68.225 44.439 67.268 47.139 63.873 48.966 59.173 51.317 56.6426 52.4522 54.224 53.8219 51.949 55.408 53.08 51.84 55.082 46.442 58.216 42.525ZM35.063 48.967 31.679 46.984C31.786 46.984 31.892 47 32 47 34.3015 47.0008 36.491 46.0065 38.005 44.273 39.0916 44.6386 40.2027 44.9269 41.33 45.136 43.1648 48.4026 44.0967 52.0989 44.03 55.845 41.3597 53.1643 38.3442 50.8513 35.063 48.967ZM48.206 52.885C47.9285 50.3762 47.3136 47.9163 46.378 45.572 48.4701 45.3307 50.4873 44.649 52.297 43.572 50.5997 46.5188 49.228 49.6415 48.206 52.885Z" fill="#000000" fill-rule="nonzero" fill-opacity="1"/></g></g></svg>